<?xml version="1.0" encoding="UTF-8"?>
<svg id="Layer_2" data-name="Layer 2" xmlns="http://www.w3.org/2000/svg" viewBox="0 0 480.31 56.79">
  <g id="Layer_1-2" data-name="Layer 1">
    <g>
      <path d="M3.79,7.46h10.83l9.26,25.6,9.36-25.6h10.78v35.67h-7.59v-22.26l-8.1,22.26h-8.85l-8.1-22.11v22.11H3.79V7.46Z" fill="#fff"/>
      <path d="M49.23,21.88c0-8.4,6.12-15.18,13.66-15.18s13.66,6.78,13.66,15.18v21.25h-7.59v-7.59h-12.14v7.59h-7.59v-21.25ZM56.82,27.95h12.14v-6.07c0-4.2-2.73-7.59-6.07-7.59s-6.07,3.39-6.07,7.59v6.07Z" fill="#fff"/>
      <path d="M97.45,7.46c6.07,0,11.03,4.96,11.03,11.03,0,4.81-3.14,8.91-7.44,10.37l3.14,5.72c.91,1.67,2.94,2.23,4.66,1.32l3.64,6.68c-5.36,2.88-12.04.96-14.98-4.35l-4.76-8.75h-3.29v13.66h-7.59V7.46h15.58ZM89.45,15.05v6.83h7.99c1.92,0,3.44-1.47,3.44-3.39s-1.52-3.44-3.44-3.44h-7.99Z" fill="#fff"/>
      <path d="M136.86,16.37c-1.82-1.32-4.05-2.07-6.48-2.07-6.07,0-10.98,4.96-10.98,11.03s4.91,10.98,10.98,10.98c2.78,0,5.36-1.01,7.29-2.73l6.32,4.45c-3.39,3.59-8.2,5.87-13.56,5.87-10.27,0-18.57-8.3-18.57-18.57s8.3-18.62,18.57-18.62c4.81,0,9.11,1.82,12.45,4.81l-6.02,4.86Z" fill="#fff"/>
      <path d="M170.31,27.95h-15.94v15.18h-7.59V7.46h7.59v12.9h15.94V7.46h7.59v35.67h-7.59v-15.18Z" fill="#fff"/>
      <path d="M195.35,7.46h22.01v6.83l-11.84,28.84h-8.65l11.44-28.08h-12.95v-7.59Z" fill="#fff"/>
      <path d="M302.16,7.46h10.83l9.26,25.6,9.36-25.6h10.78v35.67h-7.59v-22.26l-8.1,22.26h-8.85l-8.1-22.11v22.11h-7.59V7.46Z" fill="#fff"/>
      <path d="M347.6,21.88c0-8.4,6.12-15.18,13.66-15.18s13.66,6.78,13.66,15.18v21.25h-7.59v-7.59h-12.14v7.59h-7.59v-21.25ZM355.19,27.95h12.14v-6.07c0-4.2-2.73-7.59-6.07-7.59s-6.07,3.39-6.07,7.59v6.07Z" fill="#fff"/>
      <path d="M389.34,29.67c-5.97-1.77-10.37-7.64-10.37-14.62v-7.59h7.59v7.59c0,4.2,2.94,7.59,6.58,7.59s6.58-3.39,6.58-7.59v-7.59h7.59v7.59c0,6.98-4.4,12.85-10.37,14.62v13.46h-7.59v-13.46Z" fill="#fff"/>
      <path d="M440.34,19.61c.71-.76.66-1.32.66-1.87,0-1.92-1.87-3.44-4.4-3.44s-4.45,1.52-4.45,3.44h-7.59c0-6.07,5.52-11.03,12.04-11.03s11.99,4.96,11.99,11.03c0,2.02-.3,4.15-1.62,5.52-3.34,3.49-8.85,7.79-12.29,12.29h14.32v7.59h-25.05c0-9.87,9.92-16.8,16.39-23.53Z" fill="#fff"/>
      <path d="M461.44,34.58c0,.05.05.1.05.1.81.96,2.18,1.62,3.79,1.62,2.53,0,4.4-1.87,4.4-4.1,0-1.92-1.92-3.44-4.45-3.44h-3.49v-7.59h3.49c2.23,0,3.95-1.52,3.95-3.44s-1.47-3.44-3.39-3.44c-1.57,0-2.88.61-3.69,1.52h-.05l-7.03-2.98c2.02-3.64,6.12-6.12,10.78-6.12,6.07,0,10.98,4.96,10.98,11.03,0,2.73-1.01,5.26-2.58,7.19,1.92,1.97,3.09,4.5,3.09,7.29,0,6.38-5.31,11.69-11.99,11.69-4.3,0-8.2-2.18-10.32-5.41l6.48-3.9Z" fill="#fff"/>
    </g>
    <g id="Arrow_24" data-name="Arrow 24">
      <rect x="258.91" y="8.28" width="21.38" height="35.86" fill="none"/>
      <polygon points="258.91 44.13 269.28 26.21 258.91 8.28 269.92 8.28 280.3 26.21 269.92 44.13 258.91 44.13" fill="#fff"/>
    </g>
    <g id="Arrow_24-2" data-name="Arrow 24">
      <rect x="237.53" y="8.28" width="21.38" height="35.86" fill="none"/>
      <polygon points="237.53 44.13 247.9 26.21 237.53 8.28 248.54 8.28 258.91 26.21 248.54 44.13 237.53 44.13" fill="#fff"/>
    </g>
  </g>
</svg>