<?xml version="1.0" encoding="UTF-8"?>
<svg id="Layer_2" data-name="Layer 2" xmlns="http://www.w3.org/2000/svg" viewBox="0 0 598.01 370.93">
  <g id="Layer_1-2" data-name="Layer 1">
    <g>
      <path d="M568.01,306.15l-500.95,46.78c-6.6,0-12-5.33-12-11.84L18,61.31c0-6.51,5.4-11.84,12-11.84l502.08-31.47c6.6,0,12,5.33,12,11.84l35.93,264.47c0,6.51-5.4,11.84-12,11.84Z" fill="none" stroke="#00307c" stroke-miterlimit="10" stroke-width="36"/>
      <path d="M568.01,306.15l-500.95,46.78c-6.6,0-12-5.33-12-11.84L18,61.31c0-6.51,5.4-11.84,12-11.84l502.08-31.47c6.6,0,12,5.33,12,11.84l35.93,264.47c0,6.51-5.4,11.84-12,11.84Z" fill="#254cb8"/>
    </g>
    <g>
      <path d="M66.61,220.08l-3.08-31.06c-1.22-12.28,6.75-23.08,17.77-24.17,10.95-1.09,20.95,7.93,22.17,20.21l3.08,31.06-4.44.44-3.08-31.06c-.97-9.76-8.79-17.05-17.29-16.21-8.58.85-14.74,9.53-13.77,19.29l3.08,31.06-4.44.44ZM70.18,188.35c-.85-8.58,4.45-16.13,11.77-16.85,7.32-.73,14,5.63,14.85,14.21l3.08,31.06-4.44.44-1.1-11.09-17.75,1.76,1.1,11.09-4.44.44-3.08-31.06ZM75.5,196.79l17.75-1.76-.88-8.88c-.61-6.14-5.09-10.7-9.98-10.21-4.88.49-8.38,5.84-7.77,11.98l.88,8.88ZM76.16,203.44l17.75-1.76-.22-2.22-17.75,1.76.22,2.22Z" fill="#fff"/>
      <path d="M107.51,163.36l4.44-.44,5.18,52.14-4.44.44-5.18-52.14ZM114.16,162.7l4.44-.44,4.07,41.05,22.19-2.2.44,4.44-22.19,2.2.22,2.22,22.19-2.2.44,4.44-26.63,2.64-5.18-52.14Z" fill="#fff"/>
      <path d="M143.75,159.76l4.44-.44,5.18,52.14-4.44.44-5.18-52.14ZM150.4,159.1l4.44-.44,4.08,41.05,22.19-2.2.44,4.44-22.19,2.2.22,2.22,22.19-2.2.44,4.44-26.63,2.64-5.18-52.14Z" fill="#fff"/>
      <path d="M198.4,154.33l4.44-.44,5.18,52.14-4.44.44-5.18-52.14ZM219.48,177.04l28.85,25-6.21.62-30.34-26.49.35,3.48,26.81,23.33-6.06.6-20.12-17.57,1.92,19.38-4.44.44-5.18-52.14,4.44-.44,1.64,16.49,14.19-18.06,6.07-.6-16.98,21.55,1.71,1.47,18.37-23.33,6.06-.6-21.08,26.89Z" fill="#fff"/>
      <path d="M243.88,149.82l4.44-.44,5.18,52.14-4.44.44-5.18-52.14ZM250.54,149.16l4.44-.44,5.18,52.14-4.44.44-5.18-52.14Z" fill="#fff"/>
      <path d="M262.3,147.99l4.44-.44,5.18,52.14-4.44.44-5.18-52.14ZM274.59,158.95l3.98,40.09-4.44.44-5.18-52.14,2.22-.22,34.02,49.28-4.88.48-25.72-37.93ZM273.91,146.84l5.18-.51,24.77,36.6-3.84-38.68,4.44-.44,5.18,52.14-1.78.18-33.95-49.29ZM306.68,143.59l4.44-.44,5.18,52.14-4.44.44-5.18-52.14Z" fill="#fff"/>
      <path d="M326.86,152.79l-2.22.22,4.08,41.05-4.44.44-4.52-45.49,20.86-2.07c11.32-1.12,21.41,6.54,22.49,17.41,1.08,10.87-7.32,20.3-18.64,21.42l-9.76.97.22,2.22,9.76-.97c12.57-1.25,21.84-11.73,20.64-23.86-1.2-12.13-12.36-20.66-24.93-19.41l-20.86,2.07-.44-4.44,20.86-2.07c15.01-1.49,28.36,8.84,29.81,23.41,1.45,14.57-9.62,27.25-24.63,28.74l-14.2,1.41-4.08-41.05ZM331.29,152.35l2.97,29.96,9.69-.96c8.88-.88,15.48-8.11,14.64-16.54-.84-8.43-8.74-14.29-17.61-13.41l-9.69.96Z" fill="#fff"/>
      <path d="M398.79,142.36c-2.46-2.22-6.65-3.82-11.17-3.37-6.8.67-12.33,5.93-11.64,12.88.48,4.81,3.7,9.42,8.63,10.2l9.49,1.52c3.88.66,6.57,4.5,6.95,8.27.56,5.62-4.63,9.8-11.06,10.43-4.44.44-8.9-.91-11.53-3.26l3.36-3.02c1.53,1.12,4.62,2.16,7.73,1.85,4.36-.43,7.35-2.75,7.04-5.85-.2-2-1.65-3.79-3.61-4.05l-9.51-1.75c-6.82-.97-11.24-7.17-11.89-13.68-.98-9.84,6.59-17.09,15.69-17.99,5.92-.59,11.34,1.41,14.8,4.58l-3.26,3.24ZM394.19,147.15c-1.07-1.01-3.46-1.75-5.9-1.5-3.62.36-5.93,2.75-5.62,5.86.2,2,1.65,3.79,3.61,3.97l9.58,1.74c6.82.97,11.25,7.25,11.9,13.76.96,9.69-7.05,16.98-16.82,17.95-6.95.69-13.44-1.5-17.24-5.16l3.36-3.02c2.78,2.41,7.97,4.29,13.22,3.77,7.54-.75,13.69-5.84,13-12.79-.48-4.88-3.56-9.5-8.57-10.35l-9.49-1.52c-3.95-.65-6.57-4.5-6.94-8.2-.56-5.69,4.1-9.89,9.79-10.46,3.7-.37,7.11.94,9.24,2.74l-3.12,3.22Z" fill="#fff"/>
      <path d="M453.96,127.84c15.01-1.49,28.43,9.5,29.92,24.52,1.49,15.01-9.51,28.36-24.52,29.85-15.01,1.49-28.35-9.44-29.84-24.45-1.49-15.01,9.43-28.42,24.44-29.91ZM458.92,177.77c12.57-1.25,21.77-12.39,20.53-24.97-1.25-12.57-12.47-21.77-25.04-20.52s-21.69,12.46-20.45,25.03c1.25,12.57,12.39,21.7,24.96,20.45ZM454.62,134.5c11.32-1.12,21.48,7.2,22.6,18.52,1.12,11.32-7.21,21.41-18.53,22.53-11.32,1.12-21.4-7.14-22.52-18.46-1.12-11.32,7.13-21.47,18.45-22.59ZM458.18,171.12c8.88-.88,15.41-8.77,14.53-17.65-.88-8.88-8.85-15.4-17.72-14.52-8.88.88-15.33,8.84-14.45,17.72.88,8.88,8.77,15.34,17.64,14.46Z" fill="#fff"/>
      <path d="M486.39,125.75l35.5-3.52.44,4.44-35.5,3.52-.44-4.44ZM487.05,132.4l35.5-3.52.44,4.44-24.41,2.42.88,8.88,22.19-2.2.44,4.44-22.19,2.2.22,2.22,22.19-2.2.44,4.44-22.19,2.2,2.09,21.08-4.44.44-4.08-41.05-2.22.22,4.08,41.05-4.44.44-4.52-45.49Z" fill="#fff"/>
      <path d="M68.55,238.87l35.5-3.52.44,4.44-35.5,3.52-.44-4.44ZM69.21,245.53l35.5-3.52.44,4.44-24.41,2.42.88,8.88,23.3-2.31.44,4.44-23.3,2.31.22,2.22,23.3-2.31.44,4.44-23.3,2.31.99,9.99,25.52-2.53.44,4.44-25.52,2.53.22,2.22,25.52-2.53.44,4.44-29.95,2.97-4.08-41.05-2.22.22,4.08,41.05-4.44.44-4.52-45.49Z" fill="#ff80a1"/>
      <path d="M109.23,234.84l4.73-.47,22.44,45.5.86-3.37-20.86-42.37,4.73-.47,17.86,36.25,10.39-39.05,4.66-.46-14.28,54.07-5.84.58-24.7-50.21ZM146.87,283.76l-4.73.47,14.35-54.08,4.66-.46-14.28,54.07Z" fill="#ff80a1"/>
      <path d="M165.73,229.23l35.5-3.52.44,4.44-35.5,3.52-.44-4.44ZM166.39,235.88l35.5-3.52.44,4.44-24.41,2.42.88,8.88,23.3-2.31.44,4.44-23.3,2.31.22,2.22,23.3-2.31.44,4.44-23.3,2.31.99,9.99,25.52-2.53.44,4.44-25.52,2.53.22,2.22,25.52-2.53.44,4.44-29.96,2.97-4.08-41.05-2.22.22,4.08,41.05-4.44.44-4.52-45.49Z" fill="#ff80a1"/>
      <path d="M211.58,224.68l22.78-2.26c8.88-.88,16.84,5.65,17.72,14.52.7,7.03-3.29,13.47-9.37,16.24l5.42,7.9c1.57,2.31,4.61,2.83,7,1.25l2.46,3.71c-4.33,2.97-10.19,1.91-13.16-2.43l-6.21-9.1-.67.07-1.85.18,6.9,10.07c3.67,5.31,10.9,6.69,16.28,3.01l2.53,3.71c-7.42,4.99-17.46,3.15-22.52-4.19l-8.22-12.11-4.81.48,1.98,19.97-4.44.44-4.08-41.05-2.22.22,4.08,41.05-4.44.44-4.52-45.49,22.78-2.26c5.25-.52,9.89,3.28,10.41,8.53.52,5.25-3.28,9.81-8.54,10.33l-11.69,1.16.22,2.22,11.69-1.16c6.43-.64,11.17-6.34,10.53-12.77s-6.41-11.17-12.85-10.53l-22.78,2.26-.44-4.44ZM223.78,234.67l.99,9.99,11.69-1.16c2.81-.28,4.82-2.64,4.54-5.45-.28-2.81-2.72-4.81-5.53-4.53l-11.69,1.16Z" fill="#ff80a1"/>
      <path d="M259.72,231.1c.97,9.76,9.08,17.03,18.03,16.14,8.95-.89,15.48-9.6,14.51-19.37l-1.1-11.09,4.44-.44,1.1,11.09c1.01,10.21-4.57,19.43-13.04,22.88l1.95,19.67-4.44.44-1.87-18.86-1.11.11-1.11.11,1.87,18.86-4.44.44-1.95-19.67c-8.98-1.72-16.27-9.66-17.28-19.87l-1.1-11.09,4.44-.44,1.1,11.09ZM265.28,219.34l1.1,11.09c.61,6.14,5.39,10.67,10.72,10.14,5.25-.52,9.12-5.91,8.51-12.05l-1.1-11.09,4.44-.44,1.1,11.09c.85,8.58-4.82,16.16-12.51,16.93-7.77.77-14.74-5.56-15.59-14.14l-1.1-11.09,4.44-.44Z" fill="#ff80a1"/>
      <path d="M298.78,216.02l39.94-3.96.44,4.44-39.94,3.96-.44-4.44ZM299.44,222.68l39.94-3.96.44,4.44-14.42,1.43,4.08,41.05-4.44.44-4.08-41.05-2.22.22,4.08,41.05-4.44.44-4.08-41.05-14.42,1.43-.44-4.44Z" fill="#ff80a1"/>
      <path d="M344.93,211.44l4.44-.44,5.18,52.14-4.44.44-5.18-52.14ZM382.3,237.98l-23.3,2.31,2.2,22.19-4.44.44-5.18-52.14,4.44-.44,1.87,18.86,23.3-2.31-1.87-18.86,4.44-.44,5.18,52.14-4.44.44-2.2-22.19ZM358.56,235.85l23.3-2.31-.22-2.22-23.3,2.31.22,2.22ZM385.98,207.36l4.44-.44,5.18,52.14-4.44.44-5.18-52.14Z" fill="#ff80a1"/>
      <path d="M400.33,205.94l4.44-.44,5.18,52.14-4.44.44-5.18-52.14ZM406.98,205.28l4.44-.44,5.18,52.14-4.44.44-5.18-52.14Z" fill="#ff80a1"/>
      <path d="M421.48,203.84l4.44-.44,5.18,52.14-4.44.44-5.18-52.14ZM433.77,214.79l3.98,40.09-4.44.44-5.18-52.14,2.22-.22,34.02,49.28-4.88.48-25.72-37.93ZM433.09,202.69l5.18-.51,24.77,36.6-3.84-38.68,4.44-.44,5.18,52.14-1.78.18-33.95-49.29ZM465.85,199.43l4.44-.44,5.18,52.14-4.44.44-5.18-52.14Z" fill="#ff80a1"/>
      <path d="M521.89,237.27c-3.1,2.62-7.04,4.36-11.33,4.79-11.32,1.12-21.4-7.14-22.52-18.46-1.12-11.32,7.13-21.47,18.45-22.59,5.92-.59,11.49,1.4,15.67,5.09l-2.62,3.7c-3.3-3.11-7.87-4.82-12.68-4.34-8.88.88-15.33,8.84-14.45,17.72.88,8.88,8.77,15.34,17.64,14.46,4.59-.46,8.61-2.8,11.26-6.2l-.49-4.96-9.98.99-.44-4.44,21.08-2.09,2.16,21.74-4.44.44-1.72-17.31-2.22.22,1.72,17.31-2.22.22-2.04,1.32c-3.38,2.05-7.28,3.41-11.5,3.83-15.01,1.49-28.35-9.44-29.84-24.45-1.49-15.01,9.43-28.42,24.44-29.91,7.62-.76,14.81,1.74,20.27,6.28l-2.63,3.62c-4.58-3.95-10.69-6.11-17.2-5.46-12.57,1.25-21.69,12.46-20.44,25.03,1.25,12.57,12.39,21.7,24.96,20.45,4.29-.43,8.17-2.01,11.37-4.34l-.26-2.66ZM510.17,220.8l-.44-4.44,21.08-2.09.44,4.44-21.08,2.09Z" fill="#ff80a1"/>
    </g>
    <g>
      <path d="M50.95,73.99l6.3-.62,2.29,23.31,12.6-1.24.62,6.3-18.9,1.86-2.91-29.61Z" fill="#fff"/>
      <path d="M79.38,71.19l1.74,17.64c.34,3.49,3.43,6.02,6.92,5.68,3.49-.34,6.02-3.43,5.68-6.92l-1.74-17.64,6.3-.62,1.74,17.64c.69,6.97-4.39,13.16-11.36,13.84-6.97.69-13.15-4.39-13.84-11.36l-1.74-17.64,6.3-.62Z" fill="#fff"/>
      <path d="M124,74.27c-1.62-.94-3.53-1.39-5.55-1.19-5.04.5-8.71,5.01-8.21,10.05.5,5.04,4.97,8.71,10.01,8.22,2.31-.23,4.37-1.28,5.82-2.86l5.61,3.18c-2.52,3.26-6.33,5.54-10.78,5.98-8.53.84-16.09-5.37-16.93-13.9-.84-8.53,5.37-16.13,13.89-16.97,3.99-.39,7.71.77,10.73,2.97l-4.6,4.52Z" fill="#fff"/>
      <path d="M141.52,83.7c-5.1-.98-9.24-5.5-9.81-11.29l-.62-6.3,6.3-.62.62,6.3c.34,3.49,3.06,6.06,6.08,5.76,2.98-.29,5.18-3.35,4.84-6.84l-.62-6.3,6.3-.62.62,6.3c.57,5.8-2.6,11.03-7.42,12.99l1.1,11.17-6.3.62-1.1-11.17Z" fill="#fff"/>
      <path d="M170.95,62.18l8.99-.88,9.78,20.5,5.68-22.02,8.95-.88,2.91,29.61-6.3.62-1.82-18.48-4.9,19.14-7.35.72-8.53-17.69,1.81,18.36-6.3.62-2.91-29.61Z" fill="#fff"/>
      <path d="M210.18,58.32l6.3-.62,2.91,29.61-6.3.62-2.91-29.61Z" fill="#fff"/>
      <path d="M229.17,63.37l2.24,22.77-6.3.62-2.91-29.61,9.53-.94,14.05,20.8-2.16-21.97,6.3-.62,2.91,29.61-9.07.89-14.59-21.55Z" fill="#fff"/>
      <path d="M267.96,66.71l16.37,14.21-8.78.86-11.42-9.99,1.08,11-6.3.62-2.91-29.61,6.3-.62.92,9.37,8.07-10.25,8.65-.85-11.98,15.26Z" fill="#fff"/>
      <path d="M297.82,74.51l-1.89.19-.93-9.45,1.89-.19.93,9.45ZM298.15,64.93c-.31-3.15,1.96-5.92,5.11-6.23,2.44-.24,4.22-2.41,3.98-4.84-.24-2.44-2.41-4.22-4.84-3.98-2.44.24-4.22,2.41-3.98,4.84l-1.26.12c-.31-3.15,1.96-5.92,5.11-6.23s5.92,1.96,6.23,5.11c.31,3.15-1.96,5.92-5.11,6.23-2.44.24-4.22,2.41-3.98,4.84l.93,9.45c.24,2.44,2.41,4.22,4.84,3.98,2.44-.24,4.22-2.41,3.98-4.84l-.93-9.45c-.31-3.15,1.96-5.92,5.11-6.23l.12,1.26c-2.44.24-4.22,2.41-3.98,4.84l.95,9.66c.32,2.34,2.43,4,4.82,3.77l.12,1.26c-2.23.22-4.24-.81-5.34-2.53-.79,1.9-2.56,3.31-4.74,3.52-3.15.31-5.92-1.96-6.23-5.11l-.93-9.45ZM305.38,73.76l-3.78.37-.93-9.45,6.3-.62.93,9.45-1.89.19-.74-7.56-2.52.25.17,1.68,1.26-.12.17,1.68-1.26.12.23,2.31,1.89-.19.19,1.89ZM315.35,65.15l-2.52.25.74,7.56-1.89.19-.93-9.45,4.41-.43.19,1.89Z" fill="#fff"/>
      <path d="M67,128.51l16.37,14.21-8.78.86-11.42-9.99,1.08,11-6.3.62-2.91-29.61,6.3-.62.92,9.37,8.07-10.25,8.65-.85-11.98,15.26Z" fill="#fff"/>
      <path d="M82.43,112.91l20.16-1.98.62,6.3-13.86,1.36.5,5.04,13.23-1.3.62,6.3-13.23,1.3.56,5.67,14.49-1.43.62,6.3-20.79,2.05-2.91-29.61Z" fill="#fff"/>
      <path d="M108.47,110.35l6.3-.62,2.91,29.61-6.3.62-2.91-29.61Z" fill="#fff"/>
      <path d="M132.44,122.07l16.37,14.21-8.78.86-11.42-9.99,1.08,11-6.3.62-2.91-29.61,6.3-.62.92,9.37,8.07-10.25,8.65-.85-11.98,15.26Z" fill="#fff"/>
      <path d="M161.96,104.45c8.53-.84,16.14,5.41,16.98,13.94.84,8.53-5.41,16.1-13.94,16.94-8.53.84-16.09-5.37-16.93-13.9-.84-8.53,5.37-16.13,13.89-16.97ZM164.34,129.03c5.04-.5,8.76-4.97,8.26-10.01s-5.02-8.75-10.06-8.26c-5.04.5-8.71,5.01-8.21,10.05s4.97,8.71,10.01,8.22Z" fill="#fff"/>
      <path d="M200.92,108.17l2.24,22.77-6.3.62-2.91-29.61,9.53-.94,14.05,20.8-2.16-21.97,6.3-.62,2.91,29.61-9.07.89-14.59-21.55Z" fill="#fff"/>
      <path d="M228.06,110.67c-.69-6.97,3.84-13.1,10.1-13.72,6.22-.61,11.89,4.51,12.58,11.49l1.74,17.64-6.3.62-.62-6.3-10.08.99.62,6.3-6.3.62-1.74-17.64ZM234.85,115.09l10.08-.99-.5-5.04c-.34-3.49-2.89-6.08-5.66-5.81-2.77.27-4.76,3.31-4.42,6.8l.5,5.04Z" fill="#fff"/>
      <path d="M267.54,94.7c5.04-.5,9.56,3.21,10.06,8.25.39,3.99-1.88,7.65-5.33,9.22l3.07,4.49c.89,1.31,2.62,1.61,3.97.71l3.57,5.25c-4.22,2.83-9.92,1.78-12.79-2.39l-4.66-6.88-2.73.27,1.12,11.34-6.3.62-2.91-29.61,12.94-1.27ZM261.52,101.65l.56,5.67,6.64-.65c1.6-.16,2.74-1.5,2.58-3.1-.16-1.6-1.54-2.73-3.14-2.57l-6.64.65Z" fill="#fff"/>
      <path d="M281.69,105.39c-.69-6.97,3.84-13.1,10.1-13.72,6.22-.61,11.89,4.51,12.58,11.48l1.74,17.64-6.3.62-.62-6.3-10.08.99.62,6.3-6.3.62-1.74-17.64ZM288.49,109.81l10.08-.99-.5-5.04c-.34-3.49-2.89-6.08-5.66-5.8-2.77.27-4.76,3.31-4.42,6.8l.5,5.04Z" fill="#fff"/>
      <path d="M329.44,105.78l-13.23,1.3,1.24,12.6-6.3.62-2.91-29.61,6.3-.62,1.05,10.71,13.23-1.3-1.05-10.71,6.3-.62,2.91,29.61-6.3.62-1.24-12.6Z" fill="#fff"/>
      <path d="M339.99,99.65c-.69-6.97,3.84-13.1,10.1-13.72,6.22-.61,11.89,4.51,12.58,11.48l1.74,17.64-6.3.62-.62-6.3-10.08.99.62,6.3-6.3.62-1.74-17.64ZM346.79,104.07l10.08-.99-.5-5.04c-.34-3.49-2.89-6.08-5.66-5.8-2.77.27-4.76,3.31-4.42,6.8l.5,5.04Z" fill="#fff"/>
      <path d="M372.23,107.04c.87.63,2.62,1.23,4.39,1.05,2.48-.24,4.17-1.56,4-3.32-.11-1.13-.93-2.16-2.05-2.3l-5.4-1c-3.87-.55-6.38-4.08-6.75-7.78-.55-5.59,3.75-9.7,8.92-10.21,3.36-.33,6.44.81,8.4,2.61l-4.47,4.55c-.61-.58-1.96-1-3.35-.86-2.06.2-3.37,1.56-3.19,3.33.11,1.13.93,2.16,2.05,2.26l5.44.99c3.87.55,6.39,4.12,6.75,7.82.54,5.5-4.01,9.64-9.56,10.19-3.95.39-7.63-.86-9.79-2.94l4.61-4.4Z" fill="#fff"/>
      <path d="M411.43,97.71l-13.23,1.3,1.24,12.6-6.3.62-2.91-29.61,6.3-.62,1.05,10.71,13.23-1.3-1.05-10.71,6.3-.62,2.91,29.61-6.3.62-1.24-12.6Z" fill="#fff"/>
      <path d="M421.69,79.53l6.3-.62,2.91,29.61-6.3.62-2.91-29.61Z" fill="#fff"/>
    </g>
    <g>
      <path d="M78.81,314.23l6.94-.74,7.67,15.78,4.26-17.04,6.91-.73,2.42,22.86-4.86.52-1.51-14.27-3.68,14.82-5.67.6-6.69-13.62,1.5,14.17-4.86.51-2.42-22.86Z" fill="#fff"/>
      <path d="M108.9,320.39c-.57-5.38,2.89-10.14,7.73-10.66,4.8-.51,9.21,3.42,9.79,8.8l1.44,13.62-4.86.51-.51-4.86-7.78.82.52,4.86-4.86.52-1.44-13.62ZM114.18,323.76l7.78-.82-.41-3.89c-.29-2.69-2.27-4.68-4.41-4.45-2.14.23-3.66,2.58-3.38,5.28l.41,3.89Z" fill="#fff"/>
      <path d="M138.82,307.87c3.89-.41,7.41,2.43,7.82,6.32.33,3.08-1.41,5.92-4.06,7.15l2.4,3.45c.7,1.01,2.03,1.23,3.07.53l2.79,4.03c-3.24,2.21-7.65,1.43-9.89-1.77l-3.64-5.29-2.11.22.93,8.75-4.86.51-2.42-22.86,9.99-1.06ZM134.21,313.28l.46,4.38,5.12-.54c1.23-.13,2.11-1.17,1.97-2.41-.13-1.23-1.21-2.1-2.44-1.97l-5.12.54Z" fill="#fff"/>
      <path d="M164.68,310.9c-1.26-.72-2.73-1.05-4.29-.89-3.89.41-6.7,3.92-6.29,7.81s3.89,6.7,7.78,6.29c1.78-.19,3.37-1.01,4.48-2.25l4.36,2.42c-1.93,2.53-4.85,4.32-8.29,4.68-6.58.7-12.46-4.06-13.16-10.64s4.05-12.5,10.64-13.19c3.08-.33,5.96.55,8.3,2.23l-3.53,3.52Z" fill="#fff"/>
      <path d="M186.9,316.06l-10.21,1.08,1.03,9.73-4.86.51-2.42-22.86,4.86-.51.88,8.27,10.21-1.08-.88-8.27,4.86-.52,2.42,22.86-4.86.52-1.03-9.73Z" fill="#fff"/>
      <path d="M201.55,301.23l14.11-1.49.46,4.38-5.63,19.29-5.54.59,5.42-18.77-8.3.88-.52-4.86Z" fill="#fff"/>
      <path d="M269.98,293.98l6.94-.74,7.67,15.78,4.26-17.04,6.91-.73,2.42,22.86-4.87.52-1.51-14.27-3.68,14.82-5.67.6-6.69-13.62,1.5,14.17-4.86.51-2.42-22.86Z" fill="#fff"/>
      <path d="M300.08,300.14c-.57-5.38,2.89-10.14,7.72-10.66,4.8-.51,9.21,3.42,9.79,8.8l1.44,13.62-4.86.51-.52-4.86-7.78.82.51,4.86-4.86.52-1.44-13.62ZM305.35,303.52l7.78-.82-.41-3.89c-.29-2.69-2.27-4.68-4.41-4.45-2.14.23-3.66,2.58-3.38,5.28l.41,3.89Z" fill="#fff"/>
      <path d="M327.35,302.3c-3.95-.73-7.17-4.19-7.64-8.67l-.51-4.86,4.86-.51.51,4.86c.29,2.69,2.4,4.66,4.73,4.42,2.3-.24,3.99-2.62,3.7-5.31l-.51-4.86,4.86-.51.51,4.86c.47,4.47-1.95,8.54-5.65,10.08l.91,8.63-4.86.51-.91-8.63Z" fill="#fff"/>
      <path d="M359.35,292.39c.4-.53.33-.89.29-1.24-.13-1.23-1.43-2.08-3.05-1.91-1.62.17-2.75,1.28-2.62,2.51l-4.86.51c-.41-3.89,2.79-7.44,6.97-7.89,4.28-.45,8.02,2.36,8.43,6.25.14,1.3.09,2.68-.66,3.64-1.9,2.46-5.14,5.6-7.04,8.71l9.18-.97.51,4.86-16.05,1.7c-.67-6.32,5.21-11.44,8.91-16.19Z" fill="#fff"/>
      <path d="M373.88,300.55s.04.06.04.06c.58.56,1.5.89,2.54.78,1.62-.17,2.69-1.5,2.54-2.92-.13-1.23-1.47-2.08-3.09-1.9l-2.24.24-.52-4.86,2.24-.24c1.43-.15,2.43-1.24,2.3-2.47-.13-1.23-1.17-2.11-2.41-1.97-1,.11-1.81.58-2.26,1.22h-.03s-4.71-1.43-4.71-1.43c1.05-2.47,3.51-4.34,6.49-4.65,3.89-.41,7.37,2.43,7.79,6.32.19,1.75-.29,3.44-1.17,4.78,1.37,1.13,2.28,2.68,2.47,4.46.43,4.09-2.61,7.85-6.89,8.3-2.76.29-5.4-.84-6.98-2.77l3.89-2.94Z" fill="#fff"/>
    </g>
    <g id="Arrow_24" data-name="Arrow 24">
      <rect x="243.51" y="296.65" width="13.78" height="23.1" transform="translate(-31.07 28.09) rotate(-6.05)" fill="none"/>
      <polygon points="244.76 320.42 250.19 308.23 242.33 297.44 249.38 296.7 257.25 307.48 251.82 319.67 244.76 320.42" fill="#fff"/>
    </g>
    <g id="Arrow_24-2" data-name="Arrow 24">
      <rect x="229.8" y="298.1" width="13.78" height="23.1" transform="translate(-31.3 26.65) rotate(-6.05)" fill="none"/>
      <polygon points="231.06 321.87 236.49 309.68 228.63 298.89 235.68 298.15 243.54 308.93 238.11 321.12 231.06 321.87" fill="#fff"/>
    </g>
  </g>
</svg>