<?xml version="1.0" encoding="UTF-8"?>
<svg xmlns="http://www.w3.org/2000/svg" viewBox="0 0 278.21 91.15" preserveAspectRatio="xMidYMid meet">
  <g >
    <g>
      <path d="M9.5,22.25v4.99h7.32v6.16H2.53l.04-2.84V8.38l-.04-2.84h14.22v6.16h-7.25v4.83h6.47v5.73h-6.47Z"/>
      <path d="M19.75,33.39l.04-3.08V8.38l-.04-2.84h7.01l-.04,2.84v18.78h7.52v6.23h-14.49Z"/>
      <path d="M43.44,5.54l-.04,2.84v22.17l.04,2.84h-7.01l.04-2.84V8.38l-.04-2.84h7.01Z"/>
      <path d="M62.6,33.39h-17.06l7.64-21.62h-7.01v-6.23h16.44l-7.36,21.66h7.36v6.19Z"/>
      <path d="M83.13,33.39h-7.25l-.51-2.84h-4.99l-.47,2.84h-6.86l6.19-27.85h7.64l6.23,27.85ZM71.29,24.97h3.16l-1.48-9.35h-.19l-1.48,9.35Z"/>
      <path d="M84.73,33.39l.08-2.84V8.38l-.04-2.84h9.78c4.87,0,7.25,2.42,7.25,6.93v.27c0,3-.66,5.38-3.54,6.27v.16c2.96.86,3.74,2.77,3.74,6.47v.7c0,5.22-3.12,7.05-7.32,7.05h-9.93ZM91.75,16.56h1.13c1.44,0,2.1-.74,2.1-2.53v-.43c0-1.79-.66-2.42-2.1-2.42h-1.13v5.38ZM93.11,27.74c1.4,0,2.06-.62,2.06-2.57v-.86c0-1.91-.74-2.61-2.06-2.61h-1.36v6.04h1.36Z"/>
      <path d="M111.77,22.25v4.99h7.32v6.16h-14.3l.04-2.84V8.38l-.04-2.84h14.22v6.16h-7.25v4.83h6.47v5.73h-6.47Z"/>
      <path d="M132.73,11.77v18.78l.04,2.84h-7.01l.04-2.84V11.77h-5.14v-6.23h17.22v6.23h-5.14Z"/>
      <path d="M157.2,5.54l-.04,2.84v22.17l.04,2.84h-7.01l.04-2.84v-8.14h-3.19v8.14l.04,2.84h-7.01l.04-2.84V8.38l-.04-2.84h7.01l-.04,2.84v7.99h3.19v-7.99l-.04-2.84h7.01Z"/>
      <path d="M167.21,33.39l.04-3.08V8.38l-.04-2.84h7.01l-.04,2.84v18.78h7.52v6.23h-14.49Z"/>
      <path d="M202.39,33.39h-7.25l-.51-2.84h-4.99l-.47,2.84h-6.86l6.19-27.85h7.64l6.23,27.85ZM190.55,24.97h3.16l-1.48-9.35h-.19l-1.48,9.35Z"/>
      <path d="M206.83,30.54v-6.86l-6.31-18.15h7.4l1.64,5.38.9,3.74h.19l.86-3.74,1.64-5.38h6.97l-6.35,18.15v6.86l.04,2.84h-7.01l.04-2.84Z"/>
      <path d="M232.47,11.77v18.78l.04,2.84h-7.01l.04-2.84V11.77h-5.14v-6.23h17.22v6.23h-5.14Z"/>
      <path d="M247.5,33.97c-8.34,0-8.49-6.74-8.49-11.76v-5.65c0-5.1.16-11.61,8.49-11.61s8.53,6.15,8.53,11.8v5.45c0,5.61-.16,11.76-8.53,11.76ZM245.91,23.65c0,2.69,0,4.13,1.6,4.13s1.64-1.44,1.64-4.13v-8.38c0-2.69,0-4.13-1.64-4.13s-1.6,1.44-1.6,4.13v8.38Z"/>
      <path d="M259.27,30.54V8.38l-.04-2.84h5.76l5.06,12.43h.2v-9.23l-.04-3.19h6.39l-.04,2.84v22.17l.04,2.84h-5.8l-5.03-12.39h-.19v9.19l.04,3.19h-6.39l.04-2.84Z"/>
    </g>
    <g>
      <path d="M.82,84.84l.02-1.42v-11.1l-.02-1.42h2.96l-.02,1.42v9.73h3.65v2.79H.82Z" fill="#e95d93"/>
      <path d="M11.29,70.9l-.02,1.42v11.1l.02,1.42h-2.96l.02-1.42v-11.1l-.02-1.42h2.96Z" fill="#e95d93"/>
      <path d="M13.15,83.42v-11.1l-.02-1.42h2.42l2.57,6.65h.1v-5.23l-.02-1.42h2.75l-.02,1.42v11.1l.02,1.42h-2.44l-2.57-6.63h-.1v5.21l.02,1.42h-2.73l.02-1.42Z" fill="#e95d93"/>
      <path d="M25.73,79.22v2.83h3.55v2.79h-6.49l.02-1.42v-11.1l-.02-1.42h6.44v2.79h-3.49v2.75h3.12v2.79h-3.12Z" fill="#e95d93"/>
      <path d="M32.63,79.77v.82c0,1.29.57,1.93,1.42,1.93.76,0,1.15-.53,1.15-1.29,0-.86-.49-1.38-1.68-2.2l-1.29-.88c-1.46-.99-1.97-2.09-1.97-3.53,0-2.61,1.7-3.96,3.84-3.96,2.03,0,3.8,1.21,3.8,4.31v.57h-2.57v-.37c0-1.35-.49-1.95-1.31-1.95-.64,0-1.09.39-1.09,1.15,0,.47.18.94,1.52,1.81l1.31.86c2.24,1.48,2.34,3.33,2.34,4,0,2.57-1.5,4.04-3.88,4.04-2.16,0-4.29-1.21-4.29-4.29v-1.01h2.69Z" fill="#e95d93"/>
      <path d="M46.6,73.69v9.73l.02,1.42h-2.96l.02-1.42v-9.73h-2.54v-2.79h8v2.79h-2.54Z" fill="#e95d93"/>
      <path d="M57.58,70.9l-.02,1.42v11.1l.02,1.42h-2.96l.02-1.42v-4.19h-1.64v4.19l.02,1.42h-2.96l.02-1.42v-11.1l-.02-1.42h2.96l-.02,1.42v4.12h1.64v-4.12l-.02-1.42h2.96Z" fill="#e95d93"/>
      <path d="M67.06,84.84h-3.12l-.21-1.35h-2.34l-.19,1.35h-2.93l2.93-13.94h2.93l2.94,13.94ZM61.79,80.9h1.5l-.7-4.82h-.1l-.7,4.82Z" fill="#e95d93"/>
      <path d="M71.66,73.69v9.73l.02,1.42h-2.96l.02-1.42v-9.73h-2.54v-2.79h8v2.79h-2.54Z" fill="#e95d93"/>
      <path d="M85.3,70.9l-.02,1.42v11.1l.02,1.42h-2.96l.02-1.42v-4.19h-1.64v4.19l.02,1.42h-2.96l.02-1.42v-11.1l-.02-1.42h2.96l-.02,1.42v4.12h1.64v-4.12l-.02-1.42h2.96Z" fill="#e95d93"/>
      <path d="M90.47,85.07c-3.65,0-3.74-3.12-3.74-5.62v-3.16c0-2.52.1-5.64,3.74-5.64s3.74,2.83,3.74,5.64v3.16c0,2.79-.1,5.62-3.74,5.62ZM89.65,80.08c0,1.4,0,2.16.82,2.16s.82-.76.82-2.16v-4.43c0-1.4,0-2.17-.82-2.17s-.82.76-.82,2.17v4.43Z" fill="#e95d93"/>
      <path d="M95.66,84.84l.02-1.42v-11.1l-.02-1.42h2.96l-.02,1.42v9.73h3.65v2.79h-6.59Z" fill="#e95d93"/>
      <path d="M110.68,80.63c0,2.42-.7,4.21-3.59,4.21h-3.92l.02-1.42v-11.1l-.02-1.42h3.92c2.81,0,3.55,1.6,3.59,4.21v5.52ZM107.75,75.27c0-.98-.02-1.58-.96-1.58h-.68v8.37h.68c.94,0,.96-.6.96-1.58v-5.21Z" fill="#e95d93"/>
      <path d="M111.93,80.88h2.73v3.16c0,2.46-1.46,3-2.73,3v-1.29c.66,0,1.29-.43,1.29-1.09v-.02h-1.29v-3.76Z" fill="#e95d93"/>
      <path d="M122.01,79.22v4.19l.02,1.42h-2.96l.02-1.42v-11.1l-.02-1.42h6.34v2.79h-3.39v2.75h3.02v2.79h-3.02Z" fill="#e95d93"/>
      <path d="M129.99,85.07c-3.65,0-3.74-3.12-3.74-5.62v-3.16c0-2.52.1-5.64,3.74-5.64s3.74,2.83,3.74,5.64v3.16c0,2.79-.1,5.62-3.74,5.62ZM129.17,80.08c0,1.4,0,2.16.82,2.16s.82-.76.82-2.16v-4.43c0-1.4,0-2.17-.82-2.17s-.82.76-.82,2.17v4.43Z" fill="#e95d93"/>
      <path d="M142.59,74.45c0,1.95-.66,2.52-1.68,3.04v.04c1.01.27,1.68,1.46,1.68,3.06v2.13c0,.84,0,1.36.19,1.93v.19h-2.81c-.18-.29-.23-.9-.23-1.48v-2.77c0-1.13-.29-1.6-1.21-1.6h-.41v4.43l.02,1.42h-2.96l.02-1.42v-11.1l-.02-1.42h4.02c2.3,0,3.39,1.23,3.39,3.45v.1ZM138.12,76.36h.53c.78,0,1.07-.41,1.07-1.33v-.25c0-.92-.29-1.27-1.07-1.27h-.53v2.85Z" fill="#e95d93"/>
      <path d="M144.01,83.42v-11.1l-.02-1.42h3.8l1.6,7.21h.1l1.5-7.21h3.78l-.02,1.42v11.1l.02,1.42h-2.67l.02-1.42v-6.38h-.1l-1.68,7.8h-1.93l-1.68-7.8h-.1v6.38l.02,1.42h-2.67l.02-1.42Z" fill="#e95d93"/>
      <path d="M158.53,79.77v.82c0,1.29.57,1.93,1.42,1.93.76,0,1.15-.53,1.15-1.29,0-.86-.49-1.38-1.68-2.2l-1.29-.88c-1.46-.99-1.97-2.09-1.97-3.53,0-2.61,1.7-3.96,3.84-3.96,2.03,0,3.8,1.21,3.8,4.31v.57h-2.57v-.37c0-1.35-.49-1.95-1.31-1.95-.64,0-1.09.39-1.09,1.15,0,.47.18.94,1.52,1.81l1.31.86c2.24,1.48,2.34,3.33,2.34,4,0,2.57-1.5,4.04-3.88,4.04-2.17,0-4.29-1.21-4.29-4.29v-1.01h2.69Z" fill="#e95d93"/>
      <path d="M172.49,73.69v9.73l.02,1.42h-2.96l.02-1.42v-9.73h-2.54v-2.79h8v2.79h-2.54Z" fill="#e95d93"/>
      <path d="M183.47,70.9l-.02,1.42v11.1l.02,1.42h-2.96l.02-1.42v-4.19h-1.64v4.19l.02,1.42h-2.96l.02-1.42v-11.1l-.02-1.42h2.96l-.02,1.42v4.12h1.64v-4.12l-.02-1.42h2.96Z" fill="#e95d93"/>
      <path d="M192.95,84.84h-3.12l-.21-1.35h-2.34l-.19,1.35h-2.93l2.93-13.94h2.93l2.94,13.94ZM187.69,80.9h1.5l-.7-4.82h-.1l-.7,4.82Z" fill="#e95d93"/>
      <path d="M197.56,73.69v9.73l.02,1.42h-2.96l.02-1.42v-9.73h-2.54v-2.79h8v2.79h-2.54Z" fill="#e95d93"/>
      <path d="M211.08,74.45c0,1.95-.66,2.52-1.68,3.04v.04c1.01.27,1.68,1.46,1.68,3.06v2.13c0,.84,0,1.36.19,1.93v.19h-2.81c-.18-.29-.23-.9-.23-1.48v-2.77c0-1.13-.29-1.6-1.21-1.6h-.41v4.43l.02,1.42h-2.96l.02-1.42v-11.1l-.02-1.42h4.02c2.3,0,3.39,1.23,3.39,3.45v.1ZM206.61,76.36h.53c.78,0,1.07-.41,1.07-1.33v-.25c0-.92-.29-1.27-1.07-1.27h-.53v2.85Z" fill="#e95d93"/>
      <path d="M215.43,79.22v2.83h3.55v2.79h-6.49l.02-1.42v-11.1l-.02-1.42h6.44v2.79h-3.49v2.75h3.12v2.79h-3.12Z" fill="#e95d93"/>
      <path d="M220.25,83.42v-11.1l-.02-1.42h3.8l1.6,7.21h.1l1.5-7.21h3.78l-.02,1.42v11.1l.02,1.42h-2.67l.02-1.42v-6.38h-.1l-1.68,7.8h-1.93l-1.68-7.8h-.1v6.38l.02,1.42h-2.67l.02-1.42Z" fill="#e95d93"/>
      <path d="M235.79,79.22v2.83h3.55v2.79h-6.49l.02-1.42v-11.1l-.02-1.42h6.43v2.79h-3.49v2.75h3.12v2.79h-3.12Z" fill="#e95d93"/>
      <path d="M240.61,83.42v-11.1l-.02-1.42h3.8l1.6,7.21h.1l1.5-7.21h3.78l-.02,1.42v11.1l.02,1.42h-2.67l.02-1.42v-6.38h-.1l-1.68,7.8h-1.93l-1.68-7.8h-.1v6.38l.02,1.42h-2.67l.02-1.42Z" fill="#e95d93"/>
      <path d="M253.19,84.84l.04-1.42v-11.1l-.02-1.42h4.11c2.3,0,3.3,1.23,3.3,3.45v.14c0,1.5-.25,2.71-1.7,3.16v.08c1.44.41,1.79,1.4,1.79,3.26v.39c0,2.57-1.44,3.47-3.39,3.47h-4.13ZM256.16,76.36h.53c.78,0,1.07-.41,1.07-1.33v-.25c0-.92-.29-1.27-1.07-1.27h-.53v2.85ZM256.8,82.23c.74,0,1.05-.35,1.05-1.36v-.49c0-.99-.35-1.38-1.05-1.38h-.64v3.24h.64Z" fill="#e95d93"/>
      <path d="M264.91,79.22v2.83h3.55v2.79h-6.49l.02-1.42v-11.1l-.02-1.42h6.43v2.79h-3.49v2.75h3.12v2.79h-3.12Z" fill="#e95d93"/>
      <path d="M277.12,74.45c0,1.95-.66,2.52-1.68,3.04v.04c1.01.27,1.68,1.46,1.68,3.06v2.13c0,.84,0,1.36.2,1.93v.19h-2.81c-.18-.29-.23-.9-.23-1.48v-2.77c0-1.13-.29-1.6-1.21-1.6h-.41v4.43l.02,1.42h-2.96l.02-1.42v-11.1l-.02-1.42h4.02c2.3,0,3.39,1.23,3.39,3.45v.1ZM272.66,76.36h.53c.78,0,1.07-.41,1.07-1.33v-.25c0-.92-.29-1.27-1.07-1.27h-.53v2.85Z" fill="#e95d93"/>
    </g>
    <g>
      <path d="M65.71,51.95v1.06c0,1.66.73,2.49,1.84,2.49.98,0,1.49-.68,1.49-1.66,0-1.11-.63-1.79-2.17-2.85l-1.66-1.13c-1.89-1.29-2.54-2.7-2.54-4.56,0-3.38,2.19-5.11,4.96-5.11,2.62,0,4.91,1.56,4.91,5.57v.73h-3.33v-.48c0-1.74-.63-2.52-1.69-2.52-.83,0-1.41.5-1.41,1.49,0,.6.23,1.21,1.96,2.34l1.69,1.11c2.9,1.92,3.02,4.31,3.02,5.17,0,3.33-1.94,5.21-5.01,5.21-2.8,0-5.54-1.56-5.54-5.54v-1.31h3.48Z"/>
      <path d="M78.01,51.24v3.65h4.58v3.6h-8.39l.03-1.84v-14.33l-.03-1.84h8.31v3.6h-4.51v3.55h4.03v3.6h-4.03Z"/>
      <path d="M84.21,58.5l.03-1.84v-14.33l-.03-1.84h3.83l-.02,1.84v12.57h4.71v3.6h-8.52Z"/>
      <path d="M97.71,51.24v3.65h4.58v3.6h-8.39l.03-1.84v-14.33l-.03-1.84h8.31v3.6h-4.51v3.55h4.03v3.6h-4.03Z"/>
      <path d="M109.53,47.89v-1.26c0-1.81,0-2.8-1.06-2.8s-1.06.98-1.06,2.8v5.72c0,1.81,0,2.8,1.06,2.8s1.06-.98,1.06-2.8v-1.39h3.78v.53c0,3.63-.13,7.31-4.84,7.31s-4.84-4.03-4.84-7.28v-4.08c0-3.22.13-7.25,4.84-7.25s4.84,3.65,4.84,7.25v.45h-3.78Z"/>
      <path d="M120.94,44.09v12.57l.03,1.84h-3.83l.02-1.84v-12.57h-3.27v-3.6h10.33v3.6h-3.27Z"/>
      <path d="M129.23,40.48l-.02,1.84v14.33l.02,1.84h-3.83l.03-1.84v-14.33l-.03-1.84h3.83Z"/>
      <path d="M135.9,58.8c-4.71,0-4.84-4.03-4.84-7.26v-4.08c0-3.25.13-7.28,4.84-7.28s4.84,3.65,4.84,7.28v4.08c0,3.6-.13,7.26-4.84,7.26ZM134.85,52.35c0,1.81,0,2.8,1.06,2.8s1.06-.98,1.06-2.8v-5.72c0-1.81,0-2.8-1.06-2.8s-1.06.98-1.06,2.8v5.72Z"/>
      <path d="M142.63,56.66v-14.33l-.03-1.84h3.12l3.33,8.59h.13v-6.75l-.03-1.84h3.55l-.03,1.84v14.33l.03,1.84h-3.15l-3.33-8.57h-.13v6.73l.03,1.84h-3.53l.03-1.84Z"/>
      <path d="M157.54,51.95v1.06c0,1.66.73,2.49,1.84,2.49.98,0,1.49-.68,1.49-1.66,0-1.11-.63-1.79-2.17-2.85l-1.66-1.13c-1.89-1.29-2.54-2.7-2.54-4.56,0-3.38,2.19-5.11,4.96-5.11,2.62,0,4.91,1.56,4.91,5.57v.73h-3.33v-.48c0-1.74-.63-2.52-1.69-2.52-.83,0-1.41.5-1.41,1.49,0,.6.23,1.21,1.96,2.34l1.69,1.11c2.9,1.92,3.02,4.31,3.02,5.17,0,3.33-1.94,5.21-5.01,5.21-2.8,0-5.54-1.56-5.54-5.54v-1.31h3.48Z"/>
      <path d="M173.69,51.24v5.42l.02,1.84h-3.83l.03-1.84v-14.33l-.03-1.84h8.19v3.6h-4.38v3.55h3.9v3.6h-3.9Z"/>
      <path d="M189.14,45.07c0,2.52-.86,3.25-2.17,3.93v.05c1.31.35,2.17,1.89,2.17,3.96v2.75c0,1.08,0,1.76.25,2.49v.25h-3.63c-.23-.38-.3-1.16-.3-1.92v-3.58c0-1.46-.38-2.07-1.56-2.07h-.53v5.72l.02,1.84h-3.83l.03-1.84v-14.33l-.03-1.84h5.19c2.97,0,4.38,1.59,4.38,4.46v.13ZM183.37,47.54h.68c1.01,0,1.39-.53,1.39-1.71v-.33c0-1.18-.38-1.64-1.39-1.64h-.68v3.68Z"/>
      <path d="M195.51,58.8c-4.71,0-4.84-4.03-4.84-7.26v-4.08c0-3.25.13-7.28,4.84-7.28s4.84,3.65,4.84,7.28v4.08c0,3.6-.13,7.26-4.84,7.26ZM194.45,52.35c0,1.81,0,2.8,1.06,2.8s1.06-.98,1.06-2.8v-5.72c0-1.81,0-2.8-1.06-2.8s-1.06.98-1.06,2.8v5.72Z"/>
      <path d="M202.24,56.66v-14.33l-.03-1.84h4.91l2.07,9.32h.13l1.94-9.32h4.89l-.02,1.84v14.33l.02,1.84h-3.45l.03-1.84v-8.24h-.13l-2.17,10.08h-2.49l-2.17-10.08h-.13v8.24l.02,1.84h-3.45l.03-1.84Z"/>
    </g>
    <line x1="0" y1="64.97" x2="277.71" y2="64.97" fill="none" stroke="#000" stroke-miterlimit="10"/>
    <line x1="0" y1="90.65" x2="277.71" y2="90.65" fill="none" stroke="#000" stroke-miterlimit="10"/>
  </g>
</svg>
