<?xml version="1.0" encoding="UTF-8"?>
<svg id="Layer_2" xmlns="http://www.w3.org/2000/svg" version="1.1" viewBox="0 0 1397.1 1091.9">
  <!-- Generator: Adobe Illustrator 29.8.1, SVG Export Plug-In . SVG Version: 2.1.1 Build 2)  -->
  <g id="Layer_1-2">
    <g>
      <g>
        <path d="M230.2,161.1v110.9c0,69.3-53.3,117.8-116.1,117.8S1.5,337,1.5,272v-110.9C1.5,96.2,52.6,43.3,114.6,43.3s115.7,52.8,115.7,117.8h0ZM186,161.1c0-40.7-31.6-74.1-71.9-74.1s-69.3,33.3-69.3,74.1v110.9c0,40.7,30.3,74.1,69.3,74.1s71.9-33.4,71.9-74.1v-110.9Z"/>
        <path d="M507.9,43.3v228.7c0,65-53.3,118.7-116.1,117.8-63.2-.9-112.6-52.8-112.6-117.8V43.3h43.3v228.7c0,40.7,30.3,74.1,69.3,74.1s71.9-33.4,71.9-74.1V43.3h44.2Z"/>
        <path d="M650.4,389.8V87.5h-48.5v23h-43.8V43.3h228.7v67.1h-43.8v-23h-48.9v302.3h-43.8Z"/>
        <path d="M1053.6,389.8h-229.1V43.3h228.7v44.2h-185v107.4h169.4v44.2h-168.9v107h185v43.8h0Z"/>
        <path d="M1225.6,43.3c53.7,0,97,43.3,97,97s-32.1,84.9-75.8,94.9l74.1,87.1v67.6h-42.9v-45l-90.1-106.1h-51.1v150.7h-43.8V43.3h132.5ZM1225.6,194.5c29.9,0,53.7-24.3,53.7-54.1s-23.8-53.7-53.3-53.7h-89.2v107.8h88.8Z"/>
      </g>
      <g>
        <path d="M49.1,698.9c0,29.9,23.8,53.7,53.7,53.7h34.7c29.4,0,53.3-24.7,53.3-54.1s-24.2-54.1-53.7-54.1h-35.5c-53.7,0-97-44.2-97-97.9s43.3-97,97-97h28.6c53.7,0,97.4,43.3,97.4,97h-43.3c0-29.5-24.2-53.7-54.1-53.7h-28.6c-29.4,0-53.7,24.3-53.7,53.7s24.2,54.6,53.7,54.6h36.8c53.3,0,95.7,44.6,95.7,97.5s-42,97.5-94.4,97.5h-36.8c-53.7,0-97.4-43.3-97.4-97h43.8,0Z"/>
        <path d="M331,795.9h-43.8l.4-346.5h132.1c53.7,0,97.5,43.8,97.5,97.5s-43.8,97.5-97.5,97.5h-88.8v151.6h0ZM331.5,600.6h88.4c29.9,0,53.7-24.3,53.7-53.7s-23.8-54.1-53.7-54.1h-88.4v107.8h0Z"/>
        <path d="M689.2,449.4v20.8l92.7,109.6v216.1h-44.2v-107.8h-141.2v107.8h-43.8v-216.1l92.7-109.1v-21.2h43.8ZM739,644.3v-42l-71.5-84.9-71.9,85.3v41.6h143.4Z"/>
        <path d="M1057.8,698.9c0,52-40.7,97-92.2,97h-21.2c-63.2,0-114.3-52.8-114.3-117.8v-110.9c0-65,51.1-117.8,114.3-117.8h19.1c51.5,0,92.7,45.5,92.3,97.9h-43.3c0-28.6-21.7-54.1-49.4-54.1h-18.6c-39,0-70.6,33.3-70.6,74.1v110.9c0,40.7,31.6,74.1,70.6,74.1h21.2c27.3,0,48.9-25.1,48.9-53.3h43.3,0Z"/>
        <path d="M1322.9,795.9h-229.1v-346.5h228.7v44.2h-184.9v107.4h169.3v44.2h-168.9v107h184.9v43.8h0Z"/>
      </g>
      <g>
        <path d="M58.3,893.8v7l43.2,50v93.5h-12.5v-49.3H15v49.3H2.7v-93.5l43.2-49.8v-7.2h12.5ZM89.6,983v-24.6l-37.4-43.5-37.6,43.7v24.5h75Z"/>
        <path d="M194.9,893.8c22.8,0,41.2,18.1,41.2,40.5s-20.5,40.8-38.8,40.8l38,43.7v25.6h-11.9v-18.1l-44.3-51h-29.7v68.8h-12.3v-150.3h57.8,0ZM194.9,962.9c16.1,0,29.2-12.8,29.2-28.6s-13.1-28.6-29-28.6h-45.7v57.2h45.5,0Z"/>
        <path d="M299.7,1044.3v-138.3h-30.7v10.5h-12.3v-22.8h98.6v22.8h-12.3v-10.5h-30.9v138.3h-12.5Z"/>
        <path d="M564.1,893.8v12h-49.3c-20.3,0-37,17.1-37,37.8v50.8c0,20.7,16.7,37.8,37,37.8s36.8-17.1,36.8-37.8v-19.2h-34.3v-12.4h46.8v31.6c0,27.5-22.1,49.9-49.3,49.9s-49.3-22.4-49.3-49.8v-50.8c0-27.5,22.1-49.8,49.3-49.8h49.3,0Z"/>
        <path d="M652.2,893.8v7l43.2,50v93.5h-12.5v-49.3h-74.1v49.3h-12.3v-93.5l43.2-49.8v-7.2h12.5ZM683.5,983v-24.6l-37.4-43.5-37.6,43.7v24.5h75Z"/>
        <path d="M743.3,893.8v138.3h86.3v12.2h-98.6v-150.5h12.3Z"/>
        <path d="M869.4,893.8v138.3h86.3v12.2h-98.6v-150.5h12.3Z"/>
        <path d="M1078.2,1044.3h-98.8v-150.5h98.6v12.2h-86.3v57h79.1v12.4h-78.9v56.8h86.3v12Z"/>
        <path d="M1163.9,893.8c22.8,0,41.2,18.1,41.2,40.5s-20.5,40.8-38.8,40.8l38,43.7v25.6h-11.9v-18.1l-44.3-51h-29.7v68.8h-12.3v-150.3h57.8ZM1163.9,962.9c16.1,0,29.2-12.8,29.2-28.6s-13.1-28.6-29-28.6h-45.7v57.2h45.5,0Z"/>
        <path d="M1268.7,968.2l-43-59.6v-14.7h12.3v6.8l37,51.7,37.6-51.2v-7h11.7v14.9l-43.8,59.5v75.8h-11.9v-76.2h0Z"/>
      </g>
    </g>
  </g>
</svg>