<svg xmlns="http://www.w3.org/2000/svg" viewBox="0 0 238 139.34"><path d="M40.89,22.75v20A20.71,20.71,0,0,1,20,63.9C8.63,63.9-.25,54.39-.25,42.7v-20c0-11.69,9.19-21.19,20.33-21.19A20.93,20.93,0,0,1,40.89,22.75Zm-8,0A13.09,13.09,0,0,0,20,9.43c-6.78,0-12.47,6-12.47,13.32v20C7.54,50,13,56,20,56A13.24,13.24,0,0,0,32.94,42.7Z" style="fill:#fff"/><path d="M90.85,1.56V42.7c0,11.69-9.59,21.35-20.89,21.2S49.7,54.39,49.7,42.7V1.56h7.79V42.7C57.49,50,63,56,70,56A13.25,13.25,0,0,0,82.9,42.7V1.56Z" style="fill:#fff"/><path d="M116.49,63.9V9.51h-8.73v4.12H99.89V1.56H141V13.63h-7.87V9.51h-8.8V63.9Z" style="fill:#fff"/><path d="M189,63.9H147.82V1.56H189v8H155.69V28.83h30.47v8H155.77V56H189Z" style="fill:#fff"/><path d="M220,1.56a17.47,17.47,0,0,1,3.82,34.52l13.32,15.66V63.9h-7.71V55.79L213.2,36.7H204V63.82h-7.87V1.56Zm0,27.19a9.7,9.7,0,0,0,.08-19.4H204v19.4Z" style="fill:#fff"/><path d="M9,119.51a9.61,9.61,0,0,0,9.66,9.66h6.23a9.74,9.74,0,0,0-.07-19.48H18.45a17.54,17.54,0,0,1,0-35.07h5.14A17.49,17.49,0,0,1,41.12,92.08H33.33a9.73,9.73,0,0,0-9.74-9.67H18.45a9.75,9.75,0,0,0,0,19.49h6.62a17.44,17.44,0,0,1,17.22,17.53c0,9.51-7.56,17.53-17,17.53H18.68A17.49,17.49,0,0,1,1.15,119.51Z" style="fill:#fff"/><path d="M59.75,137H51.88L52,74.62H75.72a17.54,17.54,0,1,1,0,35.07h-16Zm.08-35.14H75.72a9.71,9.71,0,0,0,0-19.41H59.83Z" style="fill:#fff"/><path d="M124.2,74.62v3.74l16.67,19.72V137h-8v-19.4h-25.4V137H99.65V98.08l16.68-19.64V74.62Zm9,35.07v-7.56L120.3,86.86l-12.94,15.35v7.48Z" style="fill:#fff"/><path d="M190.51,119.51c0,9.35-7.32,17.45-16.59,17.45H170.1c-11.38,0-20.57-9.5-20.57-21.19v-20c0-11.69,9.19-21.2,20.57-21.2h3.43c9.27,0,16.67,8.18,16.59,17.61h-7.79c0-5.14-3.89-9.74-8.88-9.74H170.1c-7,0-12.7,6-12.7,13.33v20c0,7.32,5.68,13.32,12.7,13.32h3.82c4.91,0,8.8-4.52,8.8-9.58Z" style="fill:#fff"/><path d="M238.21,137H197V74.62h41.15v7.95H204.85V101.9h30.47v7.95H204.93v19.24h33.28Z" style="fill:#fff"/></svg>
