<svg xmlns="http://www.w3.org/2000/svg" viewBox="0 0 383 295.34"><title>osArtboard 1</title><ellipse cx="192.37" cy="147.95" rx="188.57" ry="145.08" style="stroke:#fff;stroke-miterlimit:10;stroke-width:4px"/><path d="M111.89,101.75v20A20.71,20.71,0,0,1,91,142.9c-11.38,0-20.26-9.51-20.26-21.2v-20c0-11.69,9.19-21.19,20.33-21.19A20.93,20.93,0,0,1,111.89,101.75Zm-8,0A13.09,13.09,0,0,0,91,88.43c-6.78,0-12.47,6-12.47,13.32v20C78.54,129,84,135,91,135a13.24,13.24,0,0,0,12.93-13.33Z" style="fill:#fff"/><path d="M161.85,80.56V121.7c0,11.69-9.59,21.35-20.89,21.2s-20.26-9.51-20.26-21.2V80.56h7.79V121.7C128.49,129,134,135,141,135A13.25,13.25,0,0,0,153.9,121.7V80.56Z" style="fill:#fff"/><path d="M187.49,142.9V88.51h-8.73v4.12h-7.87V80.56H212V92.63h-7.87V88.51h-8.8V142.9Z" style="fill:#fff"/><path d="M260,142.9H218.82V80.56H260v8H226.69v19.32h30.47v8H226.77V135H260Z" style="fill:#fff"/><path d="M291,80.56a17.47,17.47,0,0,1,3.82,34.52l13.32,15.66V142.9h-7.71v-8.11L284.2,115.7H275v27.12h-7.87V80.56Zm0,27.19a9.7,9.7,0,0,0,.08-19.4H275v19.4Z" style="fill:#fff"/><path d="M81.57,198.51a9.62,9.62,0,0,0,9.67,9.66h6.23a9.74,9.74,0,0,0-.08-19.48H91a17.54,17.54,0,0,1,0-35.07h5.15a17.49,17.49,0,0,1,17.53,17.46h-7.79a9.74,9.74,0,0,0-9.74-9.67H91a9.75,9.75,0,0,0,0,19.49h6.63a17.44,17.44,0,0,1,17.22,17.53c0,9.51-7.56,17.53-17,17.53H91.24A17.49,17.49,0,0,1,73.7,198.51Z" style="fill:#fff"/><path d="M133.87,216H126l.07-62.34h23.77a17.54,17.54,0,0,1,0,35.07h-16Zm.07-35.14h15.9a9.71,9.71,0,0,0,0-19.41h-15.9Z" style="fill:#fff"/><path d="M195.2,153.62v3.74l16.67,19.72V216h-8v-19.4h-25.4V216h-7.87V177.08l16.68-19.64v-3.82Zm9,35.07v-7.56L191.3,165.86l-12.94,15.35v7.48Z" style="fill:#fff"/><path d="M261.51,198.51c0,9.35-7.32,17.45-16.59,17.45H241.1c-11.38,0-20.57-9.5-20.57-21.19v-20c0-11.69,9.19-21.2,20.57-21.2h3.43c9.27,0,16.67,8.18,16.59,17.61h-7.79c0-5.14-3.89-9.74-8.88-9.74H241.1c-7,0-12.7,6-12.7,13.33v20c0,7.32,5.68,13.32,12.7,13.32h3.82c4.91,0,8.8-4.52,8.8-9.58Z" style="fill:#fff"/><path d="M309.21,216H268V153.62h41.15v7.95H275.85V180.9h30.47v7.95H275.93v19.24h33.28Z" style="fill:#fff"/></svg>